<svg width="61" height="60" viewBox="0 0 61 60" fill="none" xmlns="http://www.w3.org/2000/svg">
<path fill-rule="evenodd" clip-rule="evenodd" d="M50.5 2.5C54.6423 2.5 58 5.85788 58 10V50C58 54.1423 54.6423 57.5 50.5 57.5H10.5C6.35788 57.5 3 54.1423 3 50V10C3 5.85788 6.35788 2.5 10.5 2.5H50.5ZM50.5 7.5C51.8807 7.5 53 8.6193 53 10V50C53 51.3807 51.8807 52.5 50.5 52.5H38V34.9997H43.1905C44.2665 34.9997 45.2218 34.3113 45.5623 33.2903L46.6697 29.9677C47.0745 28.7535 46.1707 27.4998 44.891 27.4998H38V22.4998C38 21.2498 39.25 19.9998 40.5 19.9998H45.5C46.8807 19.9998 48 18.8805 48 17.4998V15.7848C48 14.9773 47.4842 14.2532 46.7033 14.0472C43.4263 13.1824 40.5 13.1824 40.5 13.1824C34.25 13.1824 30.5 17.4998 30.5 21.2498V27.4998H25.5C24.1193 27.4998 23 28.619 23 29.9998V32.4998C23 33.8805 24.1193 34.9997 25.5 34.9997H30.5V52.5H10.5C9.1193 52.5 8 51.3807 8 50V10C8 8.6193 9.1193 7.5 10.5 7.5H50.5Z" fill="#1C274C"/>
</svg>
