<svg width="61" height="60" viewBox="0 0 61 60" fill="none" xmlns="http://www.w3.org/2000/svg">
<path fill-rule="evenodd" clip-rule="evenodd" d="M30.5 45C38.7843 45 45.5 38.2843 45.5 30C45.5 21.7157 38.7843 15 30.5 15C22.2157 15 15.5 21.7157 15.5 30C15.5 38.2843 22.2157 45 30.5 45ZM30.5 40C36.0228 40 40.5 35.5228 40.5 30C40.5 24.4771 36.0228 20 30.5 20C24.9771 20 20.5 24.4771 20.5 30C20.5 35.5228 24.9771 40 30.5 40Z" fill="#1C274C"/>
<path d="M45.5 12.5C44.1193 12.5 43 13.6193 43 15C43 16.3807 44.1193 17.5 45.5 17.5C46.8807 17.5 48 16.3807 48 15C48 13.6193 46.8807 12.5 45.5 12.5Z" fill="#1C274C"/>
<path fill-rule="evenodd" clip-rule="evenodd" d="M4.6349 10.6902C3 13.8988 3 18.0992 3 26.5V33.5C3 41.9007 3 46.1012 4.6349 49.3097C6.073 52.1322 8.3677 54.427 11.1902 55.865C14.3988 57.5 18.5992 57.5 27 57.5H34C42.4007 57.5 46.6012 57.5 49.8097 55.865C52.6322 54.427 54.927 52.1322 56.365 49.3097C58 46.1012 58 41.9007 58 33.5V26.5C58 18.0992 58 13.8988 56.365 10.6902C54.927 7.8677 52.6322 5.573 49.8097 4.1349C46.6012 2.5 42.4007 2.5 34 2.5H27C18.5992 2.5 14.3988 2.5 11.1902 4.1349C8.3677 5.573 6.073 7.8677 4.6349 10.6902ZM34 7.5H27C22.7171 7.5 19.8056 7.5039 17.5552 7.68775C15.3631 7.86685 14.2421 8.19148 13.4601 8.58993C11.5785 9.54868 10.0487 11.0785 9.08993 12.9601C8.69148 13.7421 8.36685 14.8631 8.18775 17.0552C8.0039 19.3056 8 22.2171 8 26.5V33.5C8 37.783 8.0039 40.6943 8.18775 42.9448C8.36685 45.137 8.69148 46.258 9.08993 47.04C10.0487 48.9215 11.5785 50.4512 13.4601 51.41C14.2421 51.8085 15.3631 52.1333 17.5552 52.3122C19.8056 52.496 22.7171 52.5 27 52.5H34C38.283 52.5 41.1943 52.496 43.4448 52.3122C45.637 52.1333 46.758 51.8085 47.54 51.41C49.4215 50.4512 50.9512 48.9215 51.91 47.04C52.3085 46.258 52.6333 45.137 52.8122 42.9448C52.996 40.6943 53 37.783 53 33.5V26.5C53 22.2171 52.996 19.3056 52.8122 17.0552C52.6333 14.8631 52.3085 13.7421 51.91 12.9601C50.9512 11.0785 49.4215 9.54868 47.54 8.58993C46.758 8.19148 45.637 7.86685 43.4448 7.68775C41.1943 7.5039 38.283 7.5 34 7.5Z" fill="#1C274C"/>
</svg>
