<svg width="61" height="60" viewBox="0 0 61 60" fill="none" xmlns="http://www.w3.org/2000/svg">
<path d="M16.75 20C18.8211 20 20.5 18.3211 20.5 16.25C20.5 14.1789 18.8211 12.5 16.75 12.5C14.6789 12.5 13 14.1789 13 16.25C13 18.3211 14.6789 20 16.75 20Z" fill="#1C274C"/>
<path d="M13 25C13 23.6193 14.1193 22.5 15.5 22.5H18C19.3807 22.5 20.5 23.6193 20.5 25V45C20.5 46.3808 19.3807 47.5 18 47.5H15.5C14.1193 47.5 13 46.3808 13 45V25Z" fill="#1C274C"/>
<path d="M28 47.5H30.5C31.8807 47.5 33 46.3808 33 45V33.75C33 30 40.5 27.5 40.5 32.5V45.001C40.5 46.3818 41.6192 47.5 43 47.5H45.5C46.8808 47.5 48 46.3808 48 45V30C48 25 44.25 22.5 39.25 22.5C34.25 22.5 33 26.25 33 26.25V25C33 23.6193 31.8807 22.5 30.5 22.5H28C26.6193 22.5 25.5 23.6193 25.5 25V45C25.5 46.3808 26.6193 47.5 28 47.5Z" fill="#1C274C"/>
<path fill-rule="evenodd" clip-rule="evenodd" d="M50.5 2.5C54.6423 2.5 58 5.85788 58 10V50C58 54.1423 54.6423 57.5 50.5 57.5H10.5C6.35788 57.5 3 54.1423 3 50V10C3 5.85788 6.35788 2.5 10.5 2.5H50.5ZM50.5 7.5C51.8807 7.5 53 8.6193 53 10V50C53 51.3807 51.8807 52.5 50.5 52.5H10.5C9.1193 52.5 8 51.3807 8 50V10C8 8.6193 9.1193 7.5 10.5 7.5H50.5Z" fill="#1C274C"/>
</svg>
